<svg xmlns="http://www.w3.org/2000/svg" viewBox="0 0 3840 2160"><g transform="
          rotate(0 1920 1080) 
          translate(-0 -0)
          scale(1)
        "><rect width="3840" height="2160" fill="rgb(37, 156, 140)"></rect><g transform="translate(0, 0)"><path fill="rgb(36, 164, 148)" fill-opacity="1" d="M0,145.391L106.667,149C213.333,152.608,426.667,159.824,640,180.362C853.333,200.9,1066.667,234.761,1280,227.566C1493.333,220.372,1706.667,172.122,1920,130.227C2133.333,88.331,2346.667,52.79,2560,89.142C2773.333,125.494,2986.667,233.74,3200,267.48C3413.333,301.22,3626.667,260.454,3733.333,240.071L3840,219.687L3840,2160L3733.333,2160C3626.667,2160,3413.333,2160,3200,2160C2986.667,2160,2773.333,2160,2560,2160C2346.667,2160,2133.333,2160,1920,2160C1706.667,2160,1493.333,2160,1280,2160C1066.667,2160,853.333,2160,640,2160C426.667,2160,213.333,2160,106.667,2160L0,2160Z"></path></g><g transform="translate(0, 360)"><path fill="rgb(34, 172, 156)" fill-opacity="1" d="M0,175.777L106.667,172.168C213.333,168.559,426.667,161.341,640,132.495C853.333,103.648,1066.667,53.174,1280,83.989C1493.333,114.805,1706.667,226.911,1920,271.846C2133.333,316.782,2346.667,294.548,2560,238.943C2773.333,183.337,2986.667,94.361,3200,68.223C3413.333,42.085,3626.667,78.785,3733.333,97.135L3840,115.485L3840,1800L3733.333,1800C3626.667,1800,3413.333,1800,3200,1800C2986.667,1800,2773.333,1800,2560,1800C2346.667,1800,2133.333,1800,1920,1800C1706.667,1800,1493.333,1800,1280,1800C1066.667,1800,853.333,1800,640,1800C426.667,1800,213.333,1800,106.667,1800L0,1800Z"></path></g><g transform="translate(0, 720)"><path fill="rgb(33, 180, 164)" fill-opacity="1" d="M0,129.756L106.667,126.372C213.333,122.989,426.667,116.221,640,118.182C853.333,120.142,1066.667,130.83,1280,119.803C1493.333,108.776,1706.667,76.033,1920,92.635C2133.333,109.237,2346.667,175.183,2560,199.367C2773.333,223.551,2986.667,205.973,3200,207.274C3413.333,208.574,3626.667,228.752,3733.333,238.841L3840,248.93L3840,1440L3733.333,1440C3626.667,1440,3413.333,1440,3200,1440C2986.667,1440,2773.333,1440,2560,1440C2346.667,1440,2133.333,1440,1920,1440C1706.667,1440,1493.333,1440,1280,1440C1066.667,1440,853.333,1440,640,1440C426.667,1440,213.333,1440,106.667,1440L0,1440Z"></path></g><g transform="translate(0, 1080)"><path fill="rgb(31, 188, 172)" fill-opacity="1" d="M0,299.135L106.667,257.037C213.333,214.938,426.667,130.741,640,107.605C853.333,84.469,1066.667,122.394,1280,167.058C1493.333,211.721,1706.667,263.122,1920,241.461C2133.333,219.8,2346.667,125.075,2560,127.948C2773.333,130.821,2986.667,231.292,3200,234.126C3413.333,236.961,3626.667,142.158,3733.333,94.757L3840,47.355L3840,1080L3733.333,1080C3626.667,1080,3413.333,1080,3200,1080C2986.667,1080,2773.333,1080,2560,1080C2346.667,1080,2133.333,1080,1920,1080C1706.667,1080,1493.333,1080,1280,1080C1066.667,1080,853.333,1080,640,1080C426.667,1080,213.333,1080,106.667,1080L0,1080Z"></path></g><g transform="translate(0, 1440)"><path fill="rgb(30, 196, 180)" fill-opacity="1" d="M0,195.614L106.667,219.612C213.333,243.611,426.667,291.608,640,297.739C853.333,303.869,1066.667,268.133,1280,225.345C1493.333,182.556,1706.667,132.715,1920,110.034C2133.333,87.353,2346.667,91.832,2560,114.5C2773.333,137.169,2986.667,178.026,3200,163.273C3413.333,148.52,3626.667,78.156,3733.333,42.974L3840,7.793L3840,720L3733.333,720C3626.667,720,3413.333,720,3200,720C2986.667,720,2773.333,720,2560,720C2346.667,720,2133.333,720,1920,720C1706.667,720,1493.333,720,1280,720C1066.667,720,853.333,720,640,720C426.667,720,213.333,720,106.667,720L0,720Z"></path></g><g transform="translate(0, 1800)"><path fill="rgb(28, 204, 188)" fill-opacity="1" d="M0,72.288L106.667,89.862C213.333,107.435,426.667,142.582,640,151.264C853.333,159.947,1066.667,142.165,1280,113.519C1493.333,84.873,1706.667,45.363,1920,70.623C2133.333,95.884,2346.667,185.914,2560,200.664C2773.333,215.415,2986.667,154.886,3200,142.114C3413.333,129.341,3626.667,164.325,3733.333,181.817L3840,199.309L3840,360L3733.333,360C3626.667,360,3413.333,360,3200,360C2986.667,360,2773.333,360,2560,360C2346.667,360,2133.333,360,1920,360C1706.667,360,1493.333,360,1280,360C1066.667,360,853.333,360,640,360C426.667,360,213.333,360,106.667,360L0,360Z"></path></g></g></svg>